<?xml version="1.0" standalone="no"?>
<!DOCTYPE svg PUBLIC "-//W3C//DTD SVG 20010904//EN"
 "http://www.w3.org/TR/2001/REC-SVG-20010904/DTD/svg10.dtd">
<svg version="1.0" xmlns="http://www.w3.org/2000/svg"
 width="300.000000pt" height="144.000000pt" viewBox="0 0 300.000000 144.000000"
 preserveAspectRatio="xMidYMid meet">
<metadata>
Created by potrace 1.10, written by Peter Selinger 2001-2011
</metadata>
<g transform="translate(0.000000,144.000000) scale(0.100000,-0.100000)"
fill="#66ca63" stroke="none">
<path d="M1363 1198 c-89 -90 -167 -176 -173 -191 -28 -76 -5 -130 98 -230 83
-80 105 -88 122 -43 6 18 -5 34 -71 102 -115 118 -117 109 81 309 88 89 160
166 160 172 0 12 -33 43 -46 43 -5 0 -82 -73 -171 -162z m175 112 c-2 -6 -69
-77 -150 -158 -88 -89 -149 -158 -153 -175 -12 -47 4 -78 82 -159 42 -43 73
-81 69 -85 -8 -9 -143 123 -162 159 -16 31 -18 76 -5 110 5 13 75 89 156 171
134 133 173 166 163 137z"/>
<path d="M1500 1201 c0 -5 8 -12 18 -15 25 -9 102 -85 102 -102 0 -26 -27 -15
-64 26 -40 45 -75 63 -96 50 -10 -6 -7 -10 12 -15 14 -4 47 -29 74 -56 49 -50
71 -58 92 -37 22 22 12 45 -47 101 -55 52 -91 71 -91 48z"/>
<path d="M1401 971 c-14 -26 -4 -50 23 -56 11 -3 86 -4 165 -3 124 3 145 5
155 21 8 12 8 22 0 35 -10 15 -32 17 -172 20 -151 2 -162 1 -171 -17z m324
-21 c0 -13 -24 -15 -144 -18 -100 -2 -148 1 -158 9 -27 23 9 29 157 26 121 -2
145 -4 145 -17z"/>
<path d="M1543 810 c-39 -38 -59 -50 -82 -50 -32 0 -42 -16 -16 -26 24 -10 69
14 111 57 21 21 44 39 51 39 46 0 -53 -103 -115 -119 -23 -7 -47 -9 -52 -6 -6
4 -20 3 -31 0 -31 -10 -5 -25 43 -25 56 0 88 16 146 73 53 52 62 73 40 95 -21
21 -42 13 -95 -38z"/>
<path d="M223 563 c-10 -4 -13 -50 -13 -188 0 -183 0 -184 26 -214 24 -29 29
-31 99 -31 75 0 90 6 79 34 -5 12 -21 16 -70 16 -52 0 -65 3 -74 19 -6 11 -10
90 -10 184 0 166 -5 191 -37 180z m14 -340 c-3 -10 -5 -4 -5 12 0 17 2 24 5
18 2 -7 2 -21 0 -30z"/>
<path d="M1177 559 c-15 -9 -17 -29 -17 -178 0 -174 8 -224 40 -241 23 -13 87
-13 94 -1 12 19 -7 40 -37 43 l-32 3 -3 103 -3 102 35 0 c22 0 36 6 40 16 9
24 -2 34 -40 34 l-34 0 0 54 c0 59 -14 81 -43 65z m39 -130 c3 -6 -1 -18 -10
-27 -15 -15 -16 -14 -16 11 0 27 13 36 26 16z m18 -278 c-5 -7 -24 11 -35 32
-11 20 -9 20 13 -3 13 -14 23 -27 22 -29z"/>
<path d="M2301 557 c-6 -6 -11 -44 -11 -85 l0 -73 -26 20 c-32 25 -111 28
-152 7 -68 -35 -102 -111 -82 -180 22 -75 77 -116 157 -116 59 0 113 33 137
83 22 47 24 342 2 350 -7 3 -19 0 -25 -6z m-19 -167 c10 0 18 5 18 10 0 6 5
10 10 10 6 0 10 -25 9 -57 0 -49 -2 -54 -10 -33 -6 14 -24 41 -42 60 -18 19
-25 29 -17 23 7 -7 22 -13 32 -13z m-172 7 c0 -2 -10 -12 -22 -23 l-23 -19 19
23 c18 21 26 27 26 19z m149 -41 c20 -21 26 -36 26 -72 0 -39 -5 -50 -33 -75
-89 -80 -217 24 -158 130 31 56 116 65 165 17z m58 -98 c-3 -8 -6 -5 -6 6 -1
11 2 17 5 13 3 -3 4 -12 1 -19z m-36 -71 c-10 -9 -11 -8 -5 6 3 10 9 15 12 12
3 -3 0 -11 -7 -18z"/>
<path d="M1455 544 c-78 -42 -124 -115 -125 -197 0 -128 101 -222 230 -215 48
3 55 6 58 26 4 24 1 25 -65 22 -50 -2 -90 18 -131 64 -95 109 -7 274 142 264
49 -3 51 -2 51 22 0 24 -3 25 -65 27 -44 2 -75 -2 -95 -13z"/>
<path d="M534 430 c-33 -13 -83 -77 -90 -116 -9 -50 9 -104 50 -143 66 -64
183 -52 234 22 26 40 28 65 5 74 -11 4 -20 0 -27 -12 -6 -11 -23 -32 -38 -47
-31 -33 -89 -38 -126 -12 -23 16 -29 34 -12 34 16 0 194 81 208 95 11 10 12
17 1 36 -15 30 -47 58 -77 70 -29 11 -100 11 -128 -1z m115 -53 c13 -6 23 -16
23 -21 -1 -10 -173 -89 -180 -82 -2 3 1 21 8 41 20 61 92 92 149 62z m61 -17
c8 -16 6 -21 -12 -31 -21 -11 -22 -11 -9 4 7 9 11 24 7 32 -8 22 1 19 14 -5z
m-204 -133 c-9 -15 -7 -22 13 -38 13 -10 18 -19 13 -19 -15 0 -62 63 -62 83 0
12 4 13 24 4 20 -9 22 -14 12 -30z m204 -21 c0 -2 -8 -10 -17 -17 -16 -13 -17
-12 -4 4 13 16 21 21 21 13z m-73 -52 c-3 -3 -12 -4 -19 -1 -8 3 -5 6 6 6 11
1 17 -2 13 -5z"/>
<path d="M873 419 c-99 -63 -98 -207 1 -268 44 -28 120 -28 164 -1 35 22 74
77 69 100 -5 28 -34 22 -56 -13 -35 -57 -101 -73 -155 -38 l-30 20 40 16 c125
51 189 84 192 99 5 24 -23 63 -61 86 -44 27 -122 26 -164 -1z m17 -22 c0 -2
-12 -14 -27 -28 l-28 -24 24 28 c23 25 31 32 31 24z m123 -24 l32 -17 -90 -42
c-49 -24 -94 -43 -99 -43 -14 -1 2 61 22 82 35 39 85 46 135 20z m51 -40 c-10
-7 -20 -10 -23 -7 -3 3 1 9 8 13 10 7 11 14 1 32 l-11 24 21 -25 c20 -23 21
-25 4 -37z m-197 -104 c-9 -14 -7 -23 8 -41 l20 -23 -24 20 c-20 17 -51 65
-51 79 0 2 13 -1 29 -7 24 -9 27 -13 18 -28z m193 -33 c0 -2 -8 -10 -17 -17
-16 -13 -17 -12 -4 4 13 16 21 21 21 13z"/>
<path d="M1745 425 c-16 -8 -40 -30 -53 -49 -47 -69 -38 -146 24 -207 33 -32
39 -34 102 -34 77 0 107 17 141 76 38 67 18 156 -47 204 -35 25 -126 31 -167
10z m131 -54 c37 -22 59 -70 50 -107 -12 -46 -59 -84 -105 -84 -102 0 -144
138 -58 190 40 25 73 25 113 1z"/>
<path d="M2484 430 c-33 -13 -83 -77 -90 -116 -9 -51 9 -104 51 -144 34 -33
40 -35 103 -35 51 0 73 5 94 20 34 25 63 77 55 99 -10 25 -35 19 -52 -13 -8
-17 -25 -37 -37 -45 -29 -20 -87 -20 -116 0 -23 16 -29 34 -12 34 16 0 194 81
208 95 11 10 12 17 1 36 -15 30 -47 58 -77 70 -29 11 -100 11 -128 -1z m115
-53 c13 -6 23 -16 23 -21 -1 -9 -172 -89 -178 -83 -2 2 1 20 7 41 17 62 90 93
148 63z m71 -27 c0 -5 -9 -14 -19 -19 -17 -10 -18 -8 -8 13 11 23 27 26 27 6z
m-213 -100 c13 0 13 -3 3 -15 -7 -8 -9 -23 -6 -32 4 -13 0 -11 -14 6 -11 13
-20 29 -20 36 0 7 -3 22 -6 32 -4 14 -1 13 12 -4 9 -13 23 -23 31 -23z"/>
</g>
</svg>
